<!--?xml version="1.0" encoding="utf-8"?-->
<!-- Generator: Adobe Illustrator 18.1.1, SVG Export Plug-In . SVG Version: 6.00 Build 0)  -->

<svg version="1.1" id="_x31_0" xmlns="http://www.w3.org/2000/svg" xmlns:xlink="http://www.w3.org/1999/xlink" x="0px" y="0px" viewBox="0 0 512 512" style="width: 256px; height: 256px; opacity: 1;" xml:space="preserve">
<style type="text/css">
	.st0{fill:#374149;}
</style>
<g>
	<path class="st0" d="M256,125.996c-71.801,0-130.008,58.203-130.008,130.004c0,71.797,58.207,130.004,130.008,130.004
		c71.683,0,130-58.321,130-130.004C386,184.313,327.683,125.996,256,125.996z M256,337.547V174.45
		c44.969,0,81.547,36.582,81.547,81.55S300.969,337.547,256,337.547z" style="fill: rgb(75, 75, 75);"></path>
	<path class="st0" d="M254.746,67.375h2.504c8.898,0,16.679-7.489,17.32-17.242l1.75-26.45C277.156,11.094,268.746,0,257.57,0
		h-3.145c-11.175,0-19.582,11.094-18.754,23.683l1.75,26.45C238.07,59.886,245.844,67.375,254.746,67.375z" style="fill: rgb(75, 75, 75);"></path>
	<path class="st0" d="M257.25,444.625h-2.504c-8.902,0-16.676,7.489-17.325,17.238l-1.75,26.45
		C234.844,500.906,243.25,512,254.426,512h3.145c11.176,0,19.586-11.094,18.75-23.687l-1.75-26.45
		C273.93,452.114,266.149,444.625,257.25,444.625z" style="fill: rgb(75, 75, 75);"></path>
	<path class="st0" d="M97.297,123.566c7.352,6.438,18.145,6.234,24.438-0.058l1.774-1.774c6.289-6.293,6.496-17.086,0.054-24.438
		l-17.465-19.942c-8.316-9.488-22.106-11.39-30.004-3.488l-2.226,2.226c-7.902,7.898-6,21.691,3.492,30.004L97.297,123.566z" style="fill: rgb(75, 75, 75);"></path>
	<path class="st0" d="M414.699,388.434c-7.348-6.442-18.145-6.234-24.438,0.058l-1.77,1.77c-6.297,6.293-6.5,17.09-0.062,24.438
		l17.469,19.942c8.313,9.492,22.106,11.39,30.008,3.488l2.226-2.222c7.898-7.902,6-21.695-3.492-30.008L414.699,388.434z" style="fill: rgb(75, 75, 75);"></path>
	<path class="st0" d="M50.133,237.426l-26.45-1.75C11.094,234.844,0,243.25,0,254.426v3.145c0,11.176,11.094,19.586,23.683,18.75
		l26.45-1.746c9.75-0.645,17.242-8.422,17.242-17.324v-2.504C67.375,245.848,59.883,238.07,50.133,237.426z" style="fill: rgb(75, 75, 75);"></path>
	<path class="st0" d="M488.313,235.676l-26.454,1.75c-9.75,0.645-17.234,8.422-17.234,17.321v2.504
		c0,8.902,7.485,16.679,17.234,17.324l26.454,1.746c12.594,0.836,23.687-7.574,23.687-18.75v-3.145
		C512,243.25,500.906,234.844,488.313,235.676z" style="fill: rgb(75, 75, 75);"></path>
	<path class="st0" d="M121.734,388.492c-6.293-6.293-17.086-6.5-24.438-0.058l-19.938,17.465
		c-9.492,8.313-11.394,22.106-3.492,30.008l2.226,2.222c7.898,7.902,21.688,6.004,30.004-3.488l17.465-19.942
		c6.442-7.348,6.234-18.145-0.054-24.438L121.734,388.492z" style="fill: rgb(75, 75, 75);"></path>
	<path class="st0" d="M435.906,73.867c-7.902-7.902-21.695-6-30.008,3.488L388.43,97.297c-6.438,7.352-6.234,18.145,0.062,24.438
		l1.77,1.774c6.293,6.293,17.09,6.496,24.438,0.058l19.942-17.469c9.492-8.313,11.39-22.106,3.492-30.004L435.906,73.867z" style="fill: rgb(75, 75, 75);"></path>
</g>
</svg>
